# xmcd
#
# Track frame offsets:
#	150
#	20393
#	38986
#	55014
#	80527
#	104609
#	119660
#	157054
#	185866
#	210353
#	251765
#
# Disc length: 3734 seconds
#
# Revision: 0
# Processed by: cddbd v1.5.1PL0 Copyright (c) Steve Scherf et al.
# Submitted via: EasyCDDAExtractor 8.1.4.1
#
DISCID=9b0e940b
DTITLE=Bob Dylan - Mtv Unplugged
DYEAR=1900
DGENRE=Blues
TTITLE0=Tombstone Blues
TTITLE1=Shooting Star
TTITLE2=All Along the Watchtower
TTITLE3=The Times They Are A-Changin'
TTITLE4=John Brown
TTITLE5=Rainy Day Women #12 and 35
TTITLE6=Desolation Row
TTITLE7=Dignity
TTITLE8=Knockin' On Heaven's Door
TTITLE9=Like A Rolling Stone
TTITLE10=With God On Our Side
EXTD=
EXTT0=
EXTT1=
EXTT2=
EXTT3=
EXTT4=
EXTT5=
EXTT6=
EXTT7=
EXTT8=
EXTT9=
EXTT10=
PLAYORDER=
